<mxfile host="app.diagrams.net" modified="2024-06-27T12:40:46.525Z" agent="Mozilla/5.0 (Windows NT 10.0; Win64; x64) AppleWebKit/537.36 (KHTML, like Gecko) Chrome/126.0.0.0 Safari/537.36" etag="wfmKQAoxntbnhMVxf3D0" version="24.6.3" type="device">
  <diagram name="Страница — 1" id="wpXrMoba3l2Uq7dG1_Y0">
    <mxGraphModel dx="794" dy="492" grid="1" gridSize="10" guides="1" tooltips="1" connect="1" arrows="1" fold="1" page="1" pageScale="1" pageWidth="827" pageHeight="1169" math="0" shadow="0">
      <root>
        <mxCell id="0" />
        <mxCell id="1" parent="0" />
        <mxCell id="6tU6TFahoQU9lEmnM7Mz-22" value="" style="shape=table;startSize=0;container=1;collapsible=0;childLayout=tableLayout;fillColor=#000000;swimlaneLine=1;strokeColor=#FFFFFF;fontColor=#000000;" parent="1" vertex="1">
          <mxGeometry x="326" y="20" width="214" height="150" as="geometry" />
        </mxCell>
        <mxCell id="6tU6TFahoQU9lEmnM7Mz-23" value="" style="shape=tableRow;horizontal=0;startSize=0;swimlaneHead=0;swimlaneBody=0;strokeColor=inherit;top=0;left=0;bottom=0;right=0;collapsible=0;dropTarget=0;fillColor=none;points=[[0,0.5],[1,0.5]];portConstraint=eastwest;" parent="6tU6TFahoQU9lEmnM7Mz-22" vertex="1">
          <mxGeometry width="214" height="32" as="geometry" />
        </mxCell>
        <mxCell id="6tU6TFahoQU9lEmnM7Mz-24" value="ShowSession" style="shape=partialRectangle;html=1;whiteSpace=wrap;connectable=0;strokeColor=#FFFFFF;overflow=hidden;fillColor=none;top=0;left=0;bottom=0;right=0;pointerEvents=1;perimeterSpacing=1;align=center;fontColor=#FFFFFF;" parent="6tU6TFahoQU9lEmnM7Mz-23" vertex="1">
          <mxGeometry width="214" height="32" as="geometry">
            <mxRectangle width="214" height="32" as="alternateBounds" />
          </mxGeometry>
        </mxCell>
        <mxCell id="6tU6TFahoQU9lEmnM7Mz-25" value="" style="shape=tableRow;horizontal=0;startSize=0;swimlaneHead=0;swimlaneBody=0;strokeColor=inherit;top=0;left=0;bottom=0;right=0;collapsible=0;dropTarget=0;fillColor=none;points=[[0,0.5],[1,0.5]];portConstraint=eastwest;" parent="6tU6TFahoQU9lEmnM7Mz-22" vertex="1">
          <mxGeometry y="32" width="214" height="118" as="geometry" />
        </mxCell>
        <mxCell id="6tU6TFahoQU9lEmnM7Mz-26" value="&lt;span style=&quot;color: rgb(255, 255, 255); background-color: rgb(0, 0, 0);&quot;&gt;id: int&lt;/span&gt;&lt;div&gt;&lt;span style=&quot;color: rgb(255, 255, 255); background-color: rgb(0, 0, 0);&quot;&gt;astronomy_show: AstronomyShow&lt;/span&gt;&lt;font color=&quot;#ffffff&quot;&gt;&lt;br&gt;&lt;/font&gt;&lt;div style=&quot;&quot;&gt;&lt;font color=&quot;#ffffff&quot;&gt;planetarium_dome: PlanetariumDome&lt;/font&gt;&lt;/div&gt;&lt;/div&gt;&lt;div style=&quot;&quot;&gt;&lt;span style=&quot;color: rgb(255, 255, 255);&quot;&gt;speakers: ShowSpeaker&lt;/span&gt;&lt;font color=&quot;#ffffff&quot;&gt;&lt;br&gt;&lt;/font&gt;&lt;/div&gt;&lt;div style=&quot;&quot;&gt;&lt;font color=&quot;#ffffff&quot;&gt;show_day: date&lt;br&gt;time_start: time&lt;br&gt;time_end: time&lt;/font&gt;&lt;/div&gt;" style="shape=partialRectangle;html=1;whiteSpace=wrap;connectable=0;strokeColor=inherit;overflow=hidden;fillColor=none;top=0;left=0;bottom=0;right=0;pointerEvents=1;align=left;" parent="6tU6TFahoQU9lEmnM7Mz-25" vertex="1">
          <mxGeometry width="214" height="118" as="geometry">
            <mxRectangle width="214" height="118" as="alternateBounds" />
          </mxGeometry>
        </mxCell>
        <mxCell id="6tU6TFahoQU9lEmnM7Mz-27" value="" style="shape=table;startSize=0;container=1;collapsible=0;childLayout=tableLayout;fillColor=#000000;swimlaneLine=1;strokeColor=#FFFFFF;fontColor=#000000;" parent="1" vertex="1">
          <mxGeometry x="80" y="41" width="160" height="139" as="geometry" />
        </mxCell>
        <mxCell id="6tU6TFahoQU9lEmnM7Mz-28" value="" style="shape=tableRow;horizontal=0;startSize=0;swimlaneHead=0;swimlaneBody=0;strokeColor=inherit;top=0;left=0;bottom=0;right=0;collapsible=0;dropTarget=0;fillColor=none;points=[[0,0.5],[1,0.5]];portConstraint=eastwest;" parent="6tU6TFahoQU9lEmnM7Mz-27" vertex="1">
          <mxGeometry width="160" height="30" as="geometry" />
        </mxCell>
        <mxCell id="6tU6TFahoQU9lEmnM7Mz-29" value="AstronomyShow" style="shape=partialRectangle;html=1;whiteSpace=wrap;connectable=0;strokeColor=#FFFFFF;overflow=hidden;fillColor=none;top=0;left=0;bottom=0;right=0;pointerEvents=1;perimeterSpacing=1;align=center;fontColor=#FFFFFF;" parent="6tU6TFahoQU9lEmnM7Mz-28" vertex="1">
          <mxGeometry width="160" height="30" as="geometry">
            <mxRectangle width="160" height="30" as="alternateBounds" />
          </mxGeometry>
        </mxCell>
        <mxCell id="6tU6TFahoQU9lEmnM7Mz-30" value="" style="shape=tableRow;horizontal=0;startSize=0;swimlaneHead=0;swimlaneBody=0;strokeColor=inherit;top=0;left=0;bottom=0;right=0;collapsible=0;dropTarget=0;fillColor=none;points=[[0,0.5],[1,0.5]];portConstraint=eastwest;" parent="6tU6TFahoQU9lEmnM7Mz-27" vertex="1">
          <mxGeometry y="30" width="160" height="109" as="geometry" />
        </mxCell>
        <mxCell id="6tU6TFahoQU9lEmnM7Mz-31" value="&lt;span style=&quot;color: rgb(255, 255, 255); background-color: rgb(0, 0, 0);&quot;&gt;id: int&lt;/span&gt;&lt;div style=&quot;&quot;&gt;&lt;font color=&quot;#ffffff&quot;&gt;title: str&lt;/font&gt;&lt;/div&gt;&lt;div style=&quot;&quot;&gt;&lt;font color=&quot;#ffffff&quot;&gt;description: str(text)&lt;/font&gt;&lt;/div&gt;&lt;div style=&quot;&quot;&gt;&lt;font color=&quot;#ffffff&quot;&gt;show_theme: ShowTheme&lt;/font&gt;&lt;/div&gt;&lt;div style=&quot;&quot;&gt;&lt;font color=&quot;#ffffff&quot;&gt;poster: png&lt;/font&gt;&lt;/div&gt;" style="shape=partialRectangle;html=1;whiteSpace=wrap;connectable=0;strokeColor=inherit;overflow=hidden;fillColor=none;top=0;left=0;bottom=0;right=0;pointerEvents=1;align=left;" parent="6tU6TFahoQU9lEmnM7Mz-30" vertex="1">
          <mxGeometry width="160" height="109" as="geometry">
            <mxRectangle width="160" height="109" as="alternateBounds" />
          </mxGeometry>
        </mxCell>
        <mxCell id="6tU6TFahoQU9lEmnM7Mz-32" value="" style="shape=table;startSize=0;container=1;collapsible=0;childLayout=tableLayout;fillColor=#000000;swimlaneLine=1;strokeColor=#FFFFFF;fontColor=#000000;" parent="1" vertex="1">
          <mxGeometry x="640" y="41" width="146" height="139" as="geometry" />
        </mxCell>
        <mxCell id="6tU6TFahoQU9lEmnM7Mz-33" value="" style="shape=tableRow;horizontal=0;startSize=0;swimlaneHead=0;swimlaneBody=0;strokeColor=inherit;top=0;left=0;bottom=0;right=0;collapsible=0;dropTarget=0;fillColor=none;points=[[0,0.5],[1,0.5]];portConstraint=eastwest;" parent="6tU6TFahoQU9lEmnM7Mz-32" vertex="1">
          <mxGeometry width="146" height="30" as="geometry" />
        </mxCell>
        <mxCell id="6tU6TFahoQU9lEmnM7Mz-34" value="PlanetariumDome" style="shape=partialRectangle;html=1;whiteSpace=wrap;connectable=0;strokeColor=#FFFFFF;overflow=hidden;fillColor=none;top=0;left=0;bottom=0;right=0;pointerEvents=1;perimeterSpacing=1;align=center;fontColor=#FFFFFF;" parent="6tU6TFahoQU9lEmnM7Mz-33" vertex="1">
          <mxGeometry width="146" height="30" as="geometry">
            <mxRectangle width="146" height="30" as="alternateBounds" />
          </mxGeometry>
        </mxCell>
        <mxCell id="6tU6TFahoQU9lEmnM7Mz-35" value="" style="shape=tableRow;horizontal=0;startSize=0;swimlaneHead=0;swimlaneBody=0;strokeColor=inherit;top=0;left=0;bottom=0;right=0;collapsible=0;dropTarget=0;fillColor=none;points=[[0,0.5],[1,0.5]];portConstraint=eastwest;" parent="6tU6TFahoQU9lEmnM7Mz-32" vertex="1">
          <mxGeometry y="30" width="146" height="109" as="geometry" />
        </mxCell>
        <mxCell id="6tU6TFahoQU9lEmnM7Mz-36" value="&lt;span style=&quot;color: rgb(255, 255, 255); background-color: rgb(0, 0, 0);&quot;&gt;id: int&lt;/span&gt;&lt;div style=&quot;&quot;&gt;&lt;font color=&quot;#ffffff&quot;&gt;&lt;span style=&quot;background-color: rgb(0, 0, 0);&quot;&gt;name: str&lt;/span&gt;&lt;/font&gt;&lt;/div&gt;&lt;div style=&quot;&quot;&gt;&lt;font color=&quot;#ffffff&quot;&gt;&lt;span style=&quot;background-color: rgb(0, 0, 0);&quot;&gt;rows: int&lt;/span&gt;&lt;/font&gt;&lt;/div&gt;&lt;div style=&quot;&quot;&gt;&lt;font color=&quot;#ffffff&quot;&gt;&lt;span style=&quot;background-color: rgb(0, 0, 0);&quot;&gt;seats_in_row: int&lt;/span&gt;&lt;/font&gt;&lt;/div&gt;" style="shape=partialRectangle;html=1;whiteSpace=wrap;connectable=0;strokeColor=inherit;overflow=hidden;fillColor=none;top=0;left=0;bottom=0;right=0;pointerEvents=1;align=left;" parent="6tU6TFahoQU9lEmnM7Mz-35" vertex="1">
          <mxGeometry width="146" height="109" as="geometry">
            <mxRectangle width="146" height="109" as="alternateBounds" />
          </mxGeometry>
        </mxCell>
        <mxCell id="6tU6TFahoQU9lEmnM7Mz-37" value="" style="shape=table;startSize=4;container=1;collapsible=0;childLayout=tableLayout;fillColor=#000000;swimlaneLine=1;strokeColor=#FFFFFF;fontColor=#000000;" parent="1" vertex="1">
          <mxGeometry x="670" y="236.5" width="147" height="146" as="geometry" />
        </mxCell>
        <mxCell id="6tU6TFahoQU9lEmnM7Mz-38" value="" style="shape=tableRow;horizontal=0;startSize=0;swimlaneHead=0;swimlaneBody=0;strokeColor=inherit;top=1;left=1;bottom=1;right=1;collapsible=0;dropTarget=0;fillColor=none;points=[[0,0.5],[1,0.5]];portConstraint=eastwest;swimlaneFillColor=none;align=left;" parent="6tU6TFahoQU9lEmnM7Mz-37" vertex="1">
          <mxGeometry y="4" width="147" height="25" as="geometry" />
        </mxCell>
        <mxCell id="6tU6TFahoQU9lEmnM7Mz-39" value="Reservation" style="shape=partialRectangle;html=1;whiteSpace=wrap;connectable=0;strokeColor=#FFFFFF;overflow=hidden;fillColor=#000000;top=1;left=1;bottom=1;right=1;pointerEvents=1;perimeterSpacing=1;align=center;fontColor=#FFFFFF;swimlaneFillColor=none;" parent="6tU6TFahoQU9lEmnM7Mz-38" vertex="1">
          <mxGeometry width="147" height="25" as="geometry">
            <mxRectangle width="147" height="25" as="alternateBounds" />
          </mxGeometry>
        </mxCell>
        <mxCell id="6tU6TFahoQU9lEmnM7Mz-40" value="" style="shape=tableRow;horizontal=0;startSize=0;swimlaneHead=0;swimlaneBody=0;strokeColor=inherit;top=1;left=1;bottom=1;right=1;collapsible=0;dropTarget=0;fillColor=none;points=[[0,0.5],[1,0.5]];portConstraint=eastwest;swimlaneFillColor=none;align=left;" parent="6tU6TFahoQU9lEmnM7Mz-37" vertex="1">
          <mxGeometry y="29" width="147" height="117" as="geometry" />
        </mxCell>
        <mxCell id="6tU6TFahoQU9lEmnM7Mz-41" value="&lt;span style=&quot;background-color: rgb(0, 0, 0);&quot;&gt;id: int&lt;/span&gt;&lt;div style=&quot;&quot;&gt;&lt;span style=&quot;background-color: rgb(0, 0, 0);&quot;&gt;created_at: datetime&lt;/span&gt;&lt;/div&gt;&lt;div style=&quot;&quot;&gt;&lt;span style=&quot;background-color: rgb(0, 0, 0);&quot;&gt;user: User(build-in-Django)&lt;/span&gt;&lt;/div&gt;" style="shape=partialRectangle;html=1;whiteSpace=wrap;connectable=0;strokeColor=#FFFFFF;overflow=hidden;fillColor=#000000;top=1;left=1;bottom=1;right=1;pointerEvents=1;perimeterSpacing=2;swimlaneFillColor=none;fontColor=#FFFFFF;align=left;" parent="6tU6TFahoQU9lEmnM7Mz-40" vertex="1">
          <mxGeometry width="147" height="117" as="geometry">
            <mxRectangle width="147" height="117" as="alternateBounds" />
          </mxGeometry>
        </mxCell>
        <mxCell id="6tU6TFahoQU9lEmnM7Mz-42" value="" style="shape=table;startSize=0;container=1;collapsible=0;childLayout=tableLayout;fillColor=#000000;swimlaneLine=1;strokeColor=#FFFFFF;fontColor=#000000;" parent="1" vertex="1">
          <mxGeometry x="402" y="243.5" width="191" height="139" as="geometry" />
        </mxCell>
        <mxCell id="6tU6TFahoQU9lEmnM7Mz-43" value="" style="shape=tableRow;horizontal=0;startSize=0;swimlaneHead=0;swimlaneBody=0;strokeColor=inherit;top=0;left=0;bottom=0;right=0;collapsible=0;dropTarget=0;fillColor=none;points=[[0,0.5],[1,0.5]];portConstraint=eastwest;" parent="6tU6TFahoQU9lEmnM7Mz-42" vertex="1">
          <mxGeometry width="191" height="30" as="geometry" />
        </mxCell>
        <mxCell id="6tU6TFahoQU9lEmnM7Mz-44" value="Ticket" style="shape=partialRectangle;html=1;whiteSpace=wrap;connectable=0;strokeColor=#FFFFFF;overflow=hidden;fillColor=none;top=0;left=0;bottom=0;right=0;pointerEvents=1;perimeterSpacing=1;align=center;fontColor=#FFFFFF;" parent="6tU6TFahoQU9lEmnM7Mz-43" vertex="1">
          <mxGeometry width="191" height="30" as="geometry">
            <mxRectangle width="191" height="30" as="alternateBounds" />
          </mxGeometry>
        </mxCell>
        <mxCell id="6tU6TFahoQU9lEmnM7Mz-45" value="" style="shape=tableRow;horizontal=0;startSize=0;swimlaneHead=0;swimlaneBody=0;strokeColor=inherit;top=0;left=0;bottom=0;right=0;collapsible=0;dropTarget=0;fillColor=none;points=[[0,0.5],[1,0.5]];portConstraint=eastwest;" parent="6tU6TFahoQU9lEmnM7Mz-42" vertex="1">
          <mxGeometry y="30" width="191" height="109" as="geometry" />
        </mxCell>
        <mxCell id="6tU6TFahoQU9lEmnM7Mz-46" value="&lt;span style=&quot;color: rgb(255, 255, 255); background-color: rgb(0, 0, 0);&quot;&gt;id: int&lt;/span&gt;&lt;div&gt;&lt;font color=&quot;#ffffff&quot;&gt;row: int&lt;/font&gt;&lt;/div&gt;&lt;div&gt;&lt;font color=&quot;#ffffff&quot;&gt;seat: int&lt;br&gt;&lt;/font&gt;&lt;div style=&quot;color: rgb(255, 255, 255);&quot;&gt;&lt;span style=&quot;background-color: rgb(0, 0, 0);&quot;&gt;show_session: ShowSession&lt;/span&gt;&lt;/div&gt;&lt;div style=&quot;color: rgb(255, 255, 255);&quot;&gt;&lt;span style=&quot;background-color: rgb(0, 0, 0);&quot;&gt;reserwation: Reserwation&lt;/span&gt;&lt;/div&gt;&lt;/div&gt;" style="shape=partialRectangle;html=1;whiteSpace=wrap;connectable=0;strokeColor=inherit;overflow=hidden;fillColor=none;top=0;left=0;bottom=0;right=0;pointerEvents=1;align=left;" parent="6tU6TFahoQU9lEmnM7Mz-45" vertex="1">
          <mxGeometry width="191" height="109" as="geometry">
            <mxRectangle width="191" height="109" as="alternateBounds" />
          </mxGeometry>
        </mxCell>
        <mxCell id="6tU6TFahoQU9lEmnM7Mz-47" value="" style="shape=table;startSize=0;container=1;collapsible=0;childLayout=tableLayout;fillColor=#000000;swimlaneLine=1;strokeColor=#FFFFFF;fontColor=#000000;" parent="1" vertex="1">
          <mxGeometry x="231" y="241" width="160" height="139" as="geometry" />
        </mxCell>
        <mxCell id="6tU6TFahoQU9lEmnM7Mz-48" value="" style="shape=tableRow;horizontal=0;startSize=0;swimlaneHead=0;swimlaneBody=0;strokeColor=inherit;top=0;left=0;bottom=0;right=0;collapsible=0;dropTarget=0;fillColor=none;points=[[0,0.5],[1,0.5]];portConstraint=eastwest;" parent="6tU6TFahoQU9lEmnM7Mz-47" vertex="1">
          <mxGeometry width="160" height="30" as="geometry" />
        </mxCell>
        <mxCell id="6tU6TFahoQU9lEmnM7Mz-49" value="ShowSpeaker" style="shape=partialRectangle;html=1;whiteSpace=wrap;connectable=0;strokeColor=#FFFFFF;overflow=hidden;fillColor=none;top=0;left=0;bottom=0;right=0;pointerEvents=1;perimeterSpacing=1;align=center;fontColor=#FFFFFF;" parent="6tU6TFahoQU9lEmnM7Mz-48" vertex="1">
          <mxGeometry width="160" height="30" as="geometry">
            <mxRectangle width="160" height="30" as="alternateBounds" />
          </mxGeometry>
        </mxCell>
        <mxCell id="6tU6TFahoQU9lEmnM7Mz-50" value="" style="shape=tableRow;horizontal=0;startSize=0;swimlaneHead=0;swimlaneBody=0;strokeColor=inherit;top=0;left=0;bottom=0;right=0;collapsible=0;dropTarget=0;fillColor=none;points=[[0,0.5],[1,0.5]];portConstraint=eastwest;" parent="6tU6TFahoQU9lEmnM7Mz-47" vertex="1">
          <mxGeometry y="30" width="160" height="109" as="geometry" />
        </mxCell>
        <mxCell id="6tU6TFahoQU9lEmnM7Mz-51" value="&lt;span style=&quot;color: rgb(255, 255, 255); background-color: rgb(0, 0, 0);&quot;&gt;id: int&lt;/span&gt;&lt;div style=&quot;&quot;&gt;&lt;font color=&quot;#ffffff&quot;&gt;first_name: str&lt;/font&gt;&lt;/div&gt;&lt;div style=&quot;&quot;&gt;&lt;font color=&quot;#ffffff&quot;&gt;last_name: str&lt;br&gt;&lt;/font&gt;&lt;div style=&quot;color: rgb(255, 255, 255);&quot;&gt;&lt;span style=&quot;background-color: rgb(0, 0, 0);&quot;&gt;profession: str&lt;/span&gt;&lt;/div&gt;&lt;/div&gt;" style="shape=partialRectangle;html=1;whiteSpace=wrap;connectable=0;strokeColor=inherit;overflow=hidden;fillColor=none;top=0;left=0;bottom=0;right=0;pointerEvents=1;align=left;" parent="6tU6TFahoQU9lEmnM7Mz-50" vertex="1">
          <mxGeometry width="160" height="109" as="geometry">
            <mxRectangle width="160" height="109" as="alternateBounds" />
          </mxGeometry>
        </mxCell>
        <mxCell id="6tU6TFahoQU9lEmnM7Mz-52" value="" style="shape=table;startSize=0;container=1;collapsible=0;childLayout=tableLayout;fillColor=#000000;swimlaneLine=1;strokeColor=#FFFFFF;fontColor=#000000;" parent="1" vertex="1">
          <mxGeometry x="70" y="243.5" width="106" height="139" as="geometry" />
        </mxCell>
        <mxCell id="6tU6TFahoQU9lEmnM7Mz-53" value="" style="shape=tableRow;horizontal=0;startSize=0;swimlaneHead=0;swimlaneBody=0;strokeColor=inherit;top=0;left=0;bottom=0;right=0;collapsible=0;dropTarget=0;fillColor=none;points=[[0,0.5],[1,0.5]];portConstraint=eastwest;" parent="6tU6TFahoQU9lEmnM7Mz-52" vertex="1">
          <mxGeometry width="106" height="30" as="geometry" />
        </mxCell>
        <mxCell id="6tU6TFahoQU9lEmnM7Mz-54" value="ShowTheme" style="shape=partialRectangle;html=1;whiteSpace=wrap;connectable=0;strokeColor=#FFFFFF;overflow=hidden;fillColor=none;top=0;left=0;bottom=0;right=0;pointerEvents=1;perimeterSpacing=1;align=center;fontColor=#FFFFFF;" parent="6tU6TFahoQU9lEmnM7Mz-53" vertex="1">
          <mxGeometry width="106" height="30" as="geometry">
            <mxRectangle width="106" height="30" as="alternateBounds" />
          </mxGeometry>
        </mxCell>
        <mxCell id="6tU6TFahoQU9lEmnM7Mz-55" value="" style="shape=tableRow;horizontal=0;startSize=0;swimlaneHead=0;swimlaneBody=0;strokeColor=inherit;top=0;left=0;bottom=0;right=0;collapsible=0;dropTarget=0;fillColor=none;points=[[0,0.5],[1,0.5]];portConstraint=eastwest;" parent="6tU6TFahoQU9lEmnM7Mz-52" vertex="1">
          <mxGeometry y="30" width="106" height="109" as="geometry" />
        </mxCell>
        <mxCell id="6tU6TFahoQU9lEmnM7Mz-56" value="&lt;span style=&quot;color: rgb(255, 255, 255); background-color: rgb(0, 0, 0);&quot;&gt;id: int&lt;/span&gt;&lt;div style=&quot;&quot;&gt;&lt;font color=&quot;#ffffff&quot;&gt;name: str&lt;/font&gt;&lt;/div&gt;" style="shape=partialRectangle;html=1;whiteSpace=wrap;connectable=0;strokeColor=inherit;overflow=hidden;fillColor=none;top=0;left=0;bottom=0;right=0;pointerEvents=1;align=left;" parent="6tU6TFahoQU9lEmnM7Mz-55" vertex="1">
          <mxGeometry width="106" height="109" as="geometry">
            <mxRectangle width="106" height="109" as="alternateBounds" />
          </mxGeometry>
        </mxCell>
        <mxCell id="6tU6TFahoQU9lEmnM7Mz-61" value="" style="endArrow=classic;startArrow=classic;html=1;rounded=0;edgeStyle=orthogonalEdgeStyle;exitX=0.201;exitY=0;exitDx=0;exitDy=0;exitPerimeter=0;" parent="1" source="6tU6TFahoQU9lEmnM7Mz-53" edge="1">
          <mxGeometry width="50" height="50" relative="1" as="geometry">
            <mxPoint x="80" y="270" as="sourcePoint" />
            <mxPoint x="100" y="180" as="targetPoint" />
            <Array as="points">
              <mxPoint x="91" y="220" />
              <mxPoint x="100" y="220" />
            </Array>
          </mxGeometry>
        </mxCell>
        <mxCell id="6tU6TFahoQU9lEmnM7Mz-62" value="" style="endArrow=classic;html=1;rounded=0;edgeStyle=orthogonalEdgeStyle;entryX=0.299;entryY=1.006;entryDx=0;entryDy=0;entryPerimeter=0;exitX=0.63;exitY=-0.033;exitDx=0;exitDy=0;exitPerimeter=0;endFill=0;startArrow=classic;startFill=0;" parent="1" source="6tU6TFahoQU9lEmnM7Mz-48" target="6tU6TFahoQU9lEmnM7Mz-25" edge="1">
          <mxGeometry width="50" height="50" relative="1" as="geometry">
            <mxPoint x="380" y="270" as="sourcePoint" />
            <mxPoint x="430" y="220" as="targetPoint" />
          </mxGeometry>
        </mxCell>
        <mxCell id="6tU6TFahoQU9lEmnM7Mz-63" value="" style="endArrow=diamondThin;html=1;rounded=0;edgeStyle=orthogonalEdgeStyle;exitX=0.011;exitY=0.39;exitDx=0;exitDy=0;exitPerimeter=0;endFill=1;" parent="1" source="6tU6TFahoQU9lEmnM7Mz-25" target="6tU6TFahoQU9lEmnM7Mz-30" edge="1">
          <mxGeometry width="50" height="50" relative="1" as="geometry">
            <mxPoint x="375" y="241" as="sourcePoint" />
            <mxPoint x="270" y="130" as="targetPoint" />
          </mxGeometry>
        </mxCell>
        <mxCell id="6tU6TFahoQU9lEmnM7Mz-64" value="" style="endArrow=diamondThin;html=1;rounded=0;edgeStyle=orthogonalEdgeStyle;endFill=1;entryX=0;entryY=0.5;entryDx=0;entryDy=0;" parent="1" source="6tU6TFahoQU9lEmnM7Mz-25" target="6tU6TFahoQU9lEmnM7Mz-35" edge="1">
          <mxGeometry width="50" height="50" relative="1" as="geometry">
            <mxPoint x="353" y="128" as="sourcePoint" />
            <mxPoint x="236" y="136" as="targetPoint" />
          </mxGeometry>
        </mxCell>
        <mxCell id="6tU6TFahoQU9lEmnM7Mz-65" value="" style="endArrow=diamondThin;html=1;rounded=0;edgeStyle=orthogonalEdgeStyle;exitX=0.495;exitY=-0.011;exitDx=0;exitDy=0;exitPerimeter=0;endFill=1;entryX=0.551;entryY=0.994;entryDx=0;entryDy=0;entryPerimeter=0;" parent="1" source="6tU6TFahoQU9lEmnM7Mz-43" edge="1" target="6tU6TFahoQU9lEmnM7Mz-25">
          <mxGeometry width="50" height="50" relative="1" as="geometry">
            <mxPoint x="480.5" y="232" as="sourcePoint" />
            <mxPoint x="390" y="170" as="targetPoint" />
            <Array as="points">
              <mxPoint x="494" y="243" />
              <mxPoint x="494" y="210" />
              <mxPoint x="444" y="210" />
            </Array>
          </mxGeometry>
        </mxCell>
        <mxCell id="6tU6TFahoQU9lEmnM7Mz-66" value="" style="endArrow=diamondThin;html=1;rounded=0;edgeStyle=orthogonalEdgeStyle;endFill=1;entryX=0;entryY=0.5;entryDx=0;entryDy=0;" parent="1" source="6tU6TFahoQU9lEmnM7Mz-45" target="6tU6TFahoQU9lEmnM7Mz-40" edge="1">
          <mxGeometry width="50" height="50" relative="1" as="geometry">
            <mxPoint x="612" y="232" as="sourcePoint" />
            <mxPoint x="495" y="240" as="targetPoint" />
          </mxGeometry>
        </mxCell>
        <mxCell id="6tU6TFahoQU9lEmnM7Mz-68" value="0...n" style="text;html=1;align=center;verticalAlign=middle;resizable=0;points=[];autosize=1;strokeColor=none;fillColor=none;" parent="1" vertex="1">
          <mxGeometry x="50" y="188" width="50" height="30" as="geometry" />
        </mxCell>
        <mxCell id="6tU6TFahoQU9lEmnM7Mz-69" value="0...n" style="text;html=1;align=center;verticalAlign=middle;resizable=0;points=[];autosize=1;strokeColor=none;fillColor=none;" parent="1" vertex="1">
          <mxGeometry x="40" y="211" width="50" height="30" as="geometry" />
        </mxCell>
        <mxCell id="6tU6TFahoQU9lEmnM7Mz-70" value="n" style="text;html=1;align=center;verticalAlign=middle;resizable=0;points=[];autosize=1;strokeColor=none;fillColor=none;" parent="1" vertex="1">
          <mxGeometry x="361" y="170" width="30" height="30" as="geometry" />
        </mxCell>
        <mxCell id="6tU6TFahoQU9lEmnM7Mz-71" value="n" style="text;html=1;align=center;verticalAlign=middle;resizable=0;points=[];autosize=1;strokeColor=none;fillColor=none;" parent="1" vertex="1">
          <mxGeometry x="300" y="206.5" width="30" height="30" as="geometry" />
        </mxCell>
        <mxCell id="6tU6TFahoQU9lEmnM7Mz-72" value="1" style="text;html=1;align=center;verticalAlign=middle;resizable=0;points=[];autosize=1;strokeColor=none;fillColor=none;" parent="1" vertex="1">
          <mxGeometry x="240" y="95.5" width="30" height="30" as="geometry" />
        </mxCell>
        <mxCell id="6tU6TFahoQU9lEmnM7Mz-74" value="1" style="text;html=1;align=center;verticalAlign=middle;resizable=0;points=[];autosize=1;strokeColor=none;fillColor=none;" parent="1" vertex="1">
          <mxGeometry x="610" y="125.5" width="30" height="30" as="geometry" />
        </mxCell>
        <mxCell id="6tU6TFahoQU9lEmnM7Mz-75" value="1" style="text;html=1;align=center;verticalAlign=middle;resizable=0;points=[];autosize=1;strokeColor=none;fillColor=none;" parent="1" vertex="1">
          <mxGeometry x="440" y="170" width="30" height="30" as="geometry" />
        </mxCell>
        <mxCell id="6tU6TFahoQU9lEmnM7Mz-76" value="1" style="text;html=1;align=center;verticalAlign=middle;resizable=0;points=[];autosize=1;strokeColor=none;fillColor=none;" parent="1" vertex="1">
          <mxGeometry x="640" y="330" width="30" height="30" as="geometry" />
        </mxCell>
        <mxCell id="6tU6TFahoQU9lEmnM7Mz-77" value="n" style="text;html=1;align=center;verticalAlign=middle;resizable=0;points=[];autosize=1;strokeColor=none;fillColor=none;" parent="1" vertex="1">
          <mxGeometry x="540" y="80" width="30" height="30" as="geometry" />
        </mxCell>
        <mxCell id="6tU6TFahoQU9lEmnM7Mz-78" value="n" style="text;html=1;align=center;verticalAlign=middle;resizable=0;points=[];autosize=1;strokeColor=none;fillColor=none;" parent="1" vertex="1">
          <mxGeometry x="296" y="95.5" width="30" height="30" as="geometry" />
        </mxCell>
        <mxCell id="6tU6TFahoQU9lEmnM7Mz-79" value="n" style="text;html=1;align=center;verticalAlign=middle;resizable=0;points=[];autosize=1;strokeColor=none;fillColor=none;" parent="1" vertex="1">
          <mxGeometry x="460" y="210" width="30" height="30" as="geometry" />
        </mxCell>
        <mxCell id="6tU6TFahoQU9lEmnM7Mz-80" value="n" style="text;html=1;align=center;verticalAlign=middle;resizable=0;points=[];autosize=1;strokeColor=none;fillColor=none;" parent="1" vertex="1">
          <mxGeometry x="593" y="280" width="30" height="30" as="geometry" />
        </mxCell>
      </root>
    </mxGraphModel>
  </diagram>
</mxfile>
